HIERARCHY
ROOT Hips
{
  OFFSET 0.0 0.0 0.0
  CHANNELS 6 XPOSITION YPOSITION ZPOSITION ZROTATION XROTATION YROTATION 
  JOINT RightUpLeg
  {
    OFFSET -0.089458 -0.0866707 0.00101652
    CHANNELS 3 ZROTATION XROTATION YROTATION 
    JOINT RightLeg
    {
      OFFSET 0.0 -0.444227 0.013727
      CHANNELS 3 ZROTATION XROTATION YROTATION 
      JOINT RightFoot
      {
        OFFSET 0.00253549 -0.420924 -0.0146059
        CHANNELS 3 ZROTATION XROTATION YROTATION 
        End Site
        {
          OFFSET 0.0004 -0.0441509 0.084991
        }
      }
    }
  }
  JOINT Spine
  {
    OFFSET 0.0 0.118905 0.0
    CHANNELS 3 ZROTATION XROTATION YROTATION 
    JOINT Spine1
    {
      OFFSET 0.0 0.256574 0.00127663
      CHANNELS 3 ZROTATION XROTATION YROTATION 
      End Site
      {
        OFFSET -0.0029 0.2150836 0.02525291
      }
      JOINT RightArm
      {
        OFFSET -0.162727 -0.05365632 0.00102123
        CHANNELS 3 ZROTATION XROTATION YROTATION 
        JOINT RightForeArm
        {
          OFFSET -0.26364 0.00099144 -0.0142434
          CHANNELS 3 ZROTATION XROTATION YROTATION 
          End Site
          {
            OFFSET -0.220324 0.00085362 0.0102216
          }
        }
      }
      JOINT LeftArm
      {
        OFFSET 0.162727 -0.0536563199 0.00102123
        CHANNELS 3 ZROTATION XROTATION YROTATION 
        JOINT LeftForeArm
        {
          OFFSET 0.262597 0.00099144 -0.0142434
          CHANNELS 3 ZROTATION XROTATION YROTATION 
          End Site
          {
            OFFSET 0.220902 0.00085362 0.0102216
          }
        }
      }
    }
  }
  JOINT LeftUpLeg
  {
    OFFSET 0.089458 -0.0866707 0.00101652
    CHANNELS 3 ZROTATION XROTATION YROTATION 
    JOINT LeftLeg
    {
      OFFSET 0.0 -0.444227 0.013727
      CHANNELS 3 ZROTATION XROTATION YROTATION 
      JOINT LeftFoot
      {
        OFFSET -0.00253549 -0.420924 -0.0146059
        CHANNELS 3 ZROTATION XROTATION YROTATION 
        End Site
        {
          OFFSET -0.0004 -0.0441509 0.084991
        }
      }
    }
  }
}
MOTION
Frames: 6
Frame Time: 0.033333
0.727895510607 1.40798459721 -1.04538355813 0.538463672829 1.46405222253 81.7904839523 1.61426996033 -7.08260990985 3.31842990589 -1.13510999194 50.0518994454 -11.2512997565 5.90854308021 -41.4280855239 1.83830016511 -7.00517989721 9.20844993995 0.378046008001 0.759801022165 4.02571008171 0.0294659997034 79.5622713394 -8.74744632192 14.5973949168 2.66411998152 49.9241988136 15.7682993688 -106.465013612 -56.3426744257 -38.6828105153 -175.069004579 56.340300935 175.923993999 -5.43568011934 -29.8076012361 -0.101482997379 0.981580039279 44.9043990944 10.855800214 -13.652540698 -60.1337436038 -14.5492420831 
0.740033209702 1.42085459721 -1.04700502805 0.519110758703 1.07379207539 81.5321730281 1.95729998969 -11.5776000913 3.25111006733 -1.27503997074 55.8414990501 -10.7583001174 3.17258637065 -40.9876134545 1.7509281718 -7.6775697592 9.80654996878 0.163693994515 1.47898002785 4.0080899012 -0.497437021002 79.2168413523 -7.74193148552 14.414055564 2.7206299785 48.5605993571 15.935799513 -106.64582921 -54.5173097851 -39.3594432054 -174.997997933 57.8801021966 174.939995966 -4.95086987696 -27.1363005913 0.346673988648 0.920167994183 41.504201152 10.5670001791 -13.4737895247 -59.3814733988 -14.1981088881 
0.752086016289 1.43375459721 -1.04842171939 0.469440769285 0.486484118976 81.3920995086 2.47531007408 -15.449399544 3.32320997109 -1.37089004308 58.8007980363 -10.6551002279 3.54908774204 -43.0902974358 1.90978172331 -8.07503041984 10.2849995975 -0.143042997601 2.26377996926 4.08929017826 -1.10545000219 79.0615160204 -7.56486480771 14.1892065903 2.55819996919 48.2587015807 16.1410996315 -106.699166157 -52.7797199056 -39.8807369033 -174.728000555 59.731998707 173.774000713 -4.27004985398 -24.3645005431 0.811327008768 0.854428010391 37.8367993791 10.1423997618 -13.1513764214 -58.4448700485 -13.7458120537 
0.764204979878 1.44574459721 -1.04976381683 0.32513125184 -0.104472065584 81.1248888479 2.98040000189 -19.1604991598 3.53127994477 -1.3938100235 59.5542020527 -10.5394002384 4.72960760634 -44.9297527566 2.10917586263 -8.31568018241 10.724799747 -0.382140999893 2.96255997466 3.95300997507 -1.59569995664 79.0523977179 -8.28128078843 13.7129648202 2.40579006083 48.7876997319 16.1882996537 -106.839970507 -51.1991287543 -40.4499956046 -174.348993358 61.304998103 172.771001093 -3.66606006766 -21.6057000524 1.06993995542 0.811881001142 33.9626990063 10.090200041 -12.9973155282 -57.5467070028 -13.3669978095 
0.776300595232 1.45617459721 -1.05093709821 0.165361254364 -0.650487633119 80.8210069015 3.45855998789 -22.7204996231 3.6532201658 -1.34485997871 58.7689010529 -10.2966997115 4.85825080427 -45.8089893481 2.19439976145 -8.49332998763 11.2031998569 -0.570581997071 3.63306982708 3.64081995736 -2.00399009564 79.0653545867 -9.70816194756 13.1352537598 2.67575990452 49.7785006333 15.7391003101 -106.889885529 -49.6869282871 -40.9688782456 -173.951995442 62.5708985336 171.895002011 -3.26675995171 -18.891500697 0.788249987357 0.784970002452 30.0795998594 10.6334997546 -13.111033909 -56.7304174347 -13.093736455 
0.78842102412 1.46471459721 -1.05177797429 0.0567549966709 -1.18617632815 80.7679158411 3.8088601133 -25.8879998507 3.26900004031 -1.24784994815 56.8010006096 -9.94033971424 4.60829789716 -46.5728230634 2.23986107368 -8.64939981016 11.6853002217 -0.849476977016 4.37669984278 3.3480400566 -2.50943007064 79.0230142441 -11.4518657002 12.6311542095 3.19063002289 51.1084989742 15.0012998609 -106.736568273 -48.2456798251 -41.3638305193 -173.538004016 63.6877027648 170.976000059 -3.02983989931 -16.3300004658 -0.102763998024 0.81260099913 26.5497000397 11.50990011 -13.1555121009 -55.917536131 -12.807686425 
